<svg width="45" height="45" viewBox="0 0 45 45" fill="none" xmlns="http://www.w3.org/2000/svg">
<g clip-path="url(#clip0_1005_34)">
<path d="M22.5004 0.900391C10.5709 0.900391 0.900391 10.5709 0.900391 22.5004C0.900391 34.4299 10.5709 44.1004 22.5004 44.1004C34.4299 44.1004 44.1004 34.4299 44.1004 22.5004C44.1004 10.5709 34.4299 0.900391 22.5004 0.900391ZM17.2129 31.4531H12.8389V17.3771H17.2129V31.4531ZM14.9989 15.6491C13.6174 15.6491 12.7241 14.6704 12.7241 13.4599C12.7241 12.2246 13.6444 11.2751 15.0551 11.2751C16.4659 11.2751 17.3299 12.2246 17.3569 13.4599C17.3569 14.6704 16.4659 15.6491 14.9989 15.6491ZM33.1879 31.4531H28.8139V23.6524C28.8139 21.8366 28.1794 20.6036 26.5976 20.6036C25.3894 20.6036 24.6716 21.4384 24.3544 22.2416C24.2374 22.5274 24.2081 22.9324 24.2081 23.3351V31.4509H19.8319V21.8659C19.8319 20.1086 19.7756 18.6394 19.7171 17.3749H23.5174L23.7176 19.3301H23.8054C24.3814 18.4121 25.7921 17.0576 28.1524 17.0576C31.0301 17.0576 33.1879 18.9859 33.1879 23.1304V31.4531Z" fill="black"/>
</g>
<defs>
<clipPath id="clip0_1005_34">
<rect width="45" height="45" fill="white"/>
</clipPath>
</defs>
</svg>
